<svg width="32" height="32" viewBox="0 0 100 100" fill="none" xmlns="http://www.w3.org/2000/svg">
  <rect width="100" height="100" rx="20" fill="#0a140f"/>
  <path d="M50 15 C33 15 20 28 20 50 C20 72 33 85 50 85 C67 85 80 72 80 50" stroke="#22c55e" stroke-width="7" stroke-linecap="round" fill="none"/>
  <circle cx="50" cy="32" r="5" fill="#22c55e"/>
  <circle cx="34" cy="44" r="4" fill="#4ade80"/>
  <circle cx="66" cy="44" r="4" fill="#4ade80"/>
  <circle cx="38" cy="60" r="4.5" fill="#22c55e"/>
  <circle cx="62" cy="60" r="4.5" fill="#22c55e"/>
  <circle cx="50" cy="72" r="5" fill="#4ade80"/>
  <circle cx="50" cy="52" r="6" fill="#22c55e"/>
  <line x1="50" y1="32" x2="34" y2="44" stroke="#22c55e" stroke-width="2" opacity="0.5"/>
  <line x1="50" y1="32" x2="66" y2="44" stroke="#22c55e" stroke-width="2" opacity="0.5"/>
  <line x1="50" y1="32" x2="50" y2="52" stroke="#22c55e" stroke-width="2" opacity="0.5"/>
  <line x1="34" y1="44" x2="38" y2="60" stroke="#4ade80" stroke-width="2" opacity="0.4"/>
  <line x1="66" y1="44" x2="62" y2="60" stroke="#4ade80" stroke-width="2" opacity="0.4"/>
  <line x1="34" y1="44" x2="50" y2="52" stroke="#4ade80" stroke-width="2" opacity="0.4"/>
  <line x1="66" y1="44" x2="50" y2="52" stroke="#4ade80" stroke-width="2" opacity="0.4"/>
  <line x1="38" y1="60" x2="50" y2="52" stroke="#22c55e" stroke-width="2" opacity="0.4"/>
  <line x1="62" y1="60" x2="50" y2="52" stroke="#22c55e" stroke-width="2" opacity="0.4"/>
  <line x1="38" y1="60" x2="50" y2="72" stroke="#4ade80" stroke-width="2" opacity="0.4"/>
  <line x1="62" y1="60" x2="50" y2="72" stroke="#4ade80" stroke-width="2" opacity="0.4"/>
  <line x1="50" y1="52" x2="50" y2="72" stroke="#22c55e" stroke-width="2" opacity="0.5"/>
</svg>
