<svg width="32" height="32" viewBox="0 0 100 100" fill="none" xmlns="http://www.w3.org/2000/svg">
  <!-- Transparent background - no rect fill -->
  <path d="M50 12 C30 12 15 28 15 52 C15 76 30 88 50 88 C70 88 85 76 85 52" stroke="#22c55e" stroke-width="6" stroke-linecap="round" fill="none"/>
  <circle cx="50" cy="30" r="5" fill="#22c55e"/>
  <circle cx="32" cy="42" r="4" fill="#4ade80"/>
  <circle cx="68" cy="42" r="4" fill="#4ade80"/>
  <circle cx="36" cy="60" r="4.5" fill="#22c55e"/>
  <circle cx="64" cy="60" r="4.5" fill="#22c55e"/>
  <circle cx="50" cy="74" r="5" fill="#4ade80"/>
  <circle cx="50" cy="52" r="6" fill="#22c55e"/>
  <line x1="50" y1="30" x2="32" y2="42" stroke="#22c55e" stroke-width="2" opacity="0.5"/>
  <line x1="50" y1="30" x2="68" y2="42" stroke="#22c55e" stroke-width="2" opacity="0.5"/>
  <line x1="50" y1="30" x2="50" y2="52" stroke="#22c55e" stroke-width="2" opacity="0.5"/>
  <line x1="32" y1="42" x2="36" y2="60" stroke="#4ade80" stroke-width="2" opacity="0.4"/>
  <line x1="68" y1="42" x2="64" y2="60" stroke="#4ade80" stroke-width="2" opacity="0.4"/>
  <line x1="32" y1="42" x2="50" y2="52" stroke="#4ade80" stroke-width="2" opacity="0.4"/>
  <line x1="68" y1="42" x2="50" y2="52" stroke="#4ade80" stroke-width="2" opacity="0.4"/>
  <line x1="36" y1="60" x2="50" y2="52" stroke="#22c55e" stroke-width="2" opacity="0.4"/>
  <line x1="64" y1="60" x2="50" y2="52" stroke="#22c55e" stroke-width="2" opacity="0.4"/>
  <line x1="36" y1="60" x2="50" y2="74" stroke="#4ade80" stroke-width="2" opacity="0.4"/>
  <line x1="64" y1="60" x2="50" y2="74" stroke="#4ade80" stroke-width="2" opacity="0.4"/>
  <line x1="50" y1="52" x2="50" y2="74" stroke="#22c55e" stroke-width="2" opacity="0.5"/>
</svg>
